<svg viewBox="0 0 24 24" xmlns="http://www.w3.org/2000/svg"><path d="M7.8 5.4c-1.2 0-2.3.7-2.8 1.7-.3-.1-.6-.2-.9-.2C2.5 6.9 1.2 8.2 1.2 9.8c0 .6.2 1.1.5 1.6-.3.5-.5 1-.5 1.6 0 1.6 1.3 2.9 2.9 2.9.3 0 .6-.1.9-.2.5 1 1.6 1.7 2.8 1.7 1.2 0 2.3-.7 2.8-1.7.3.1.6.2.9.2h.1c.3 0 .6-.1.9-.2.5 1 1.6 1.7 2.8 1.7 1.2 0 2.3-.7 2.8-1.7.3.1.6.2.9.2 1.6 0 2.9-1.3 2.9-2.9 0-.6-.2-1.1-.5-1.6.3-.5.5-1 .5-1.6 0-1.6-1.3-2.9-2.9-2.9-.3 0-.6.1-.9.2-.5-1-1.6-1.7-2.8-1.7-1.2 0-2.3.7-2.8 1.7-.3-.1-.6-.2-.9-.2h-.1c-.3 0-.6.1-.9.2-.5-1-1.6-1.7-2.8-1.7z" fill="#FFD21E"/><circle cx="8.5" cy="10.5" r="1.2" fill="#1a1a1a"/><circle cx="15.5" cy="10.5" r="1.2" fill="#1a1a1a"/><path d="M9 14c.5.8 1.5 1.3 3 1.3s2.5-.5 3-1.3" stroke="#1a1a1a" stroke-width="1" stroke-linecap="round" fill="none"/></svg>
